<svg width="72" height="62" viewBox="0 0 72 62" fill="none"
    xmlns="http://www.w3.org/2000/svg">
    <path fill-rule="evenodd" clip-rule="evenodd" d="M66.4247 -85.1049C80.8674 -86.283 98.6965 -94.1016 108.754 -82.7296C119.167 -70.956 109.504 -51.1945 110.832 -34.8958C111.759 -23.5089 116.415 -13.1762 115.345 -1.8042C114.032 12.1465 112.315 26.6143 104.033 37.3382C94.4192 49.7879 81.252 59.7388 66.4247 61.5438C50.7604 63.4508 33.7778 58.9524 22.1818 47.303C11.053 36.1227 10.7825 17.8991 7.05556 1.9007C3.61669 -12.8609 -2.67605 -27.6411 1.32342 -42.2335C5.36501 -56.9796 16.3799 -68.2275 28.4557 -76.1799C39.8185 -83.6626 53.1903 -84.0255 66.4247 -85.1049Z" fill="#000"/>
</svg>
